<svg version="1.1" id="Layer_1" xmlns:x="ns_extend;" xmlns:i="ns_ai;" xmlns:graph="ns_graphs;" xmlns="http://www.w3.org/2000/svg" xmlns:xlink="http://www.w3.org/1999/xlink" x="0px" y="0px" viewBox="0 0 462 100" style="enable-background:new 0 0 462 100;" xml:space="preserve">
 <style type="text/css">
  .st0{fill:#0083DB;}
	.st1{filter:url(#Adobe_OpacityMaskFilter);}
	.st2{fill-rule:evenodd;clip-rule:evenodd;fill:#FFFFFF;}
	.st3{mask:url(#b_1_);fill:#0083DB;}
 </style>
 <metadata>
  <sfw xmlns="ns_sfw;">
   <slices>
   </slices>
   <sliceSourceBounds bottomLeftOrigin="true" height="100" width="462" x="-252" y="0.7">
   </sliceSourceBounds>
  </sfw>
 </metadata>
 <g>
  <path class="st0" d="M140.2,62.1c0,3.8-1.3,5.1-5.1,5.1h-10V48.4h10c3.9,0,5.1,1.3,5.1,5.1V62.1z M125.1,24.5h9
		c3.9,0,5.1,1.3,5.1,5.1v5.1c0,3.9-1.3,5.1-5.1,5.1h-9V24.5z M143,43.7v-0.9c0,0,5.6-0.9,5.6-7.3v-7.7c0-8.1-3.9-12-12-12h-21v59.9
		h22c8.1,0,12-3.9,12-12V52.7C149.6,44.6,143,43.7,143,43.7z">
  </path>
  <polygon class="st0" points="167,67.2 189.7,67.2 189.7,75.8 157.6,75.8 157.6,15.9 167,15.9 	">
  </polygon>
  <path class="st0" d="M229.7,64.7c0,8.1-3.9,12-12,12h-12c-8.1,0-12-3.9-12-12V15.9h9.4l0,47.1c0,3.9,1.3,5.1,5.1,5.1h6.8
		c3.8,0,5.1-1.3,5.1-5.1l0-47.1h9.4V64.7z">
  </path>
  <polygon class="st0" points="247.1,41.1 265.1,41.1 265.1,49.7 247.1,49.7 247.1,67.2 271.1,67.2 271.1,75.8 237.7,75.8 
		237.7,15.9 270.2,15.9 270.2,24.5 247.1,24.5 	">
  </polygon>
  <polygon class="st0" points="329.7,41.1 347.6,41.1 347.6,49.7 329.7,49.7 329.7,67.2 353.6,67.2 353.6,75.8 320.2,75.8 
		320.2,15.9 352.7,15.9 352.7,24.5 329.7,24.5 	">
  </polygon>
  <path class="st0" d="M372.3,53.1l5.1-23.1h0.9l5.1,23.1H372.3z M383.4,15.9l-10.9,0l-14.7,59.9h9.9l3-14.1h14.5l3,14.1l9.9,0
		L383.4,15.9z">
  </path>
  <polygon class="st0" points="422.4,75.8 412.4,39 411.6,39 411.6,75.8 402.2,75.8 402.2,15.9 414.4,15.9 425.7,57.4 426.5,57.4 
		437.8,15.9 450.1,15.9 450.1,75.8 440.6,75.8 440.7,39 439.8,39 429.8,75.8 	">
  </polygon>
  <path class="st0" d="M302.8,62.1c0,3.8-1.3,5.1-5.1,5.1h-10V48.4h10c3.9,0,5.1,1.3,5.1,5.1V62.1z M287.7,24.5h9
		c3.9,0,5.1,1.3,5.1,5.1v5.1c0,3.9-1.3,5.1-5.1,5.1h-9V24.5z M305.6,43.7v-0.9c0,0,5.6-0.9,5.6-7.3v-7.7c0-8.1-3.9-12-12-12h-21
		v59.9h22c8.1,0,12-3.9,12-12V52.7C312.2,44.6,305.6,43.7,305.6,43.7z">
  </path>
  <g transform="translate(0 .581)">
   <defs>
    <filter id="Adobe_OpacityMaskFilter" filterUnits="userSpaceOnUse" x="0" y="-0.6" width="91.6" height="91.6">
     <feColorMatrix type="matrix" values="1 0 0 0 0  0 1 0 0 0  0 0 1 0 0  0 0 0 1 0">
     </feColorMatrix>
    </filter>
   </defs>
   <mask maskUnits="userSpaceOnUse" x="0" y="-0.6" width="91.6" height="91.6" id="b_1_">
    <g class="st1">
     <polygon id="a_1_" class="st2" points="45.8,-0.6 0,-0.6 0,91.1 91.6,91.1 91.6,-0.6 				">
     </polygon>
    </g>
   </mask>
   <path class="st3" d="M30.5-0.6v15.3h45.8v61.1H15.3V-0.6H0V91h91.6V-0.6H30.5z M30.5,60.5h30.5V30H30.5V60.5z">
   </path>
  </g>
  <path d="M238.5,95.1h3.9l-1.2-3.2c-0.4-1-0.6-1.8-0.8-2.4c-0.1,0.7-0.4,1.5-0.6,2.2L238.5,95.1z M235.1,99.8l4.4-11.6h1.7l4.7,11.6
		h-1.7l-1.4-3.5H238l-1.3,3.5H235.1z">
  </path>
  <polygon points="251.3,99.8 251.3,88.2 252.8,88.2 258.9,97.3 258.9,88.2 260.4,88.2 260.4,99.8 258.8,99.8 252.7,90.7 252.7,99.8 
			">
  </polygon>
  <polygon points="263.2,99.8 263.2,88.2 271.6,88.2 271.6,89.6 264.7,89.6 264.7,93.1 271.1,93.1 271.1,94.5 264.7,94.5 264.7,98.4 
		271.8,98.4 271.8,99.8 	">
  </polygon>
  <path d="M274.2,99.8V88.2h2.3l2.7,8.2c0.3,0.8,0.4,1.3,0.6,1.7c0.1-0.4,0.3-1,0.6-1.9l2.8-8h2.1v11.6h-1.5v-9.7l-3.4,9.7H279
		l-3.3-9.8v9.8H274.2z">
  </path>
  <polygon points="287.9,99.8 287.9,88.2 296.3,88.2 296.3,89.6 289.5,89.6 289.5,93.1 295.9,93.1 295.9,94.5 289.5,94.5 289.5,98.4 
		296.6,98.4 296.6,99.8 	">
  </polygon>
  <polygon points="301.9,99.8 301.9,89.6 298,89.6 298,88.2 307.2,88.2 307.2,89.6 303.4,89.6 303.4,99.8 	">
  </polygon>
  <path d="M308.5,96.1l1.4-0.1c0.1,0.6,0.2,1.1,0.5,1.4c0.3,0.4,0.6,0.7,1.2,0.9c0.5,0.2,1.1,0.3,1.8,0.3c0.6,0,1.1-0.1,1.5-0.3
		s0.8-0.4,1-0.7c0.2-0.3,0.3-0.6,0.3-1c0-0.4-0.1-0.7-0.3-1c-0.2-0.3-0.6-0.5-1-0.7c-0.3-0.1-1-0.3-2.1-0.6
		c-1.1-0.3-1.8-0.5-2.2-0.7c-0.6-0.3-1-0.6-1.2-1.1c-0.3-0.4-0.4-0.9-0.4-1.4c0-0.6,0.2-1.1,0.5-1.6c0.3-0.5,0.8-0.9,1.5-1.2
		c0.6-0.3,1.3-0.4,2.1-0.4c0.9,0,1.6,0.1,2.3,0.4c0.7,0.3,1.2,0.7,1.5,1.2c0.4,0.5,0.5,1.1,0.6,1.8l-1.5,0.1
		c-0.1-0.7-0.3-1.3-0.8-1.7s-1.1-0.6-2-0.6c-0.9,0-1.6,0.2-2,0.5c-0.4,0.3-0.6,0.7-0.6,1.2c0,0.4,0.2,0.8,0.4,1
		c0.3,0.3,1.1,0.5,2.3,0.8c1.2,0.3,2.1,0.5,2.6,0.7c0.7,0.3,1.2,0.7,1.5,1.2c0.3,0.5,0.5,1,0.5,1.6c0,0.6-0.2,1.2-0.5,1.7
		c-0.4,0.5-0.9,1-1.5,1.3c-0.7,0.3-1.4,0.5-2.2,0.5c-1,0-1.9-0.2-2.6-0.5c-0.7-0.3-1.3-0.8-1.7-1.4
		C308.7,97.6,308.5,96.9,308.5,96.1 M328.3,95.7l1.5,0.4c-0.3,1.3-0.9,2.2-1.7,2.9c-0.8,0.7-1.9,1-3.1,1c-1.2,0-2.3-0.3-3-0.8
		c-0.8-0.5-1.4-1.2-1.8-2.2c-0.4-1-0.6-2-0.6-3.1c0-1.2,0.2-2.3,0.7-3.2c0.5-0.9,1.1-1.6,2-2c0.9-0.5,1.8-0.7,2.8-0.7
		c1.2,0,2.1,0.3,2.9,0.9c0.8,0.6,1.3,1.4,1.6,2.5l-1.5,0.4c-0.3-0.8-0.7-1.5-1.2-1.8c-0.5-0.4-1.2-0.6-1.9-0.6
		c-0.9,0-1.6,0.2-2.2,0.6c-0.6,0.4-1,1-1.3,1.7c-0.2,0.7-0.4,1.5-0.4,2.2c0,1,0.1,1.8,0.4,2.6c0.3,0.7,0.7,1.3,1.3,1.6
		c0.6,0.4,1.3,0.5,2,0.5c0.9,0,1.6-0.2,2.2-0.7C327.7,97.5,328.1,96.7,328.3,95.7">
  </path>
  <polygon points="332,99.8 332,88.2 333.5,88.2 333.5,93 339.5,93 339.5,88.2 341.1,88.2 341.1,99.8 339.5,99.8 339.5,94.4 
		333.5,94.4 333.5,99.8 	">
  </polygon>
  <polygon points="343.9,99.8 343.9,88.2 352.3,88.2 352.3,89.6 345.4,89.6 345.4,93.1 351.8,93.1 351.8,94.5 345.4,94.5 345.4,98.4 
		352.5,98.4 352.5,99.8 	">
  </polygon>
  <polygon points="354.8,99.8 354.8,88.2 356.3,88.2 356.3,94 362.1,88.2 364.2,88.2 359.3,92.9 364.4,99.8 362.4,99.8 358.2,94 
		356.3,95.8 356.3,99.8 	">
  </polygon>
  <path d="M378.9,95.7l1.5,0.4c-0.3,1.3-0.9,2.2-1.7,2.9c-0.8,0.7-1.9,1-3.1,1c-1.2,0-2.3-0.3-3-0.8c-0.8-0.5-1.4-1.2-1.8-2.2
		c-0.4-1-0.6-2-0.6-3.1c0-1.2,0.2-2.3,0.7-3.2c0.5-0.9,1.1-1.6,2-2s1.8-0.7,2.8-0.7c1.2,0,2.1,0.3,2.9,0.9c0.8,0.6,1.3,1.4,1.6,2.5
		l-1.5,0.4c-0.3-0.8-0.7-1.5-1.2-1.8c-0.5-0.4-1.2-0.6-1.9-0.6c-0.9,0-1.6,0.2-2.2,0.6c-0.6,0.4-1,1-1.3,1.7
		c-0.2,0.7-0.4,1.5-0.4,2.2c0,1,0.1,1.8,0.4,2.6c0.3,0.7,0.7,1.3,1.3,1.6c0.6,0.4,1.3,0.5,2,0.5c0.9,0,1.6-0.2,2.2-0.7
		C378.3,97.5,378.7,96.7,378.9,95.7 M383.6,94.2c0,1.4,0.4,2.5,1.1,3.3c0.8,0.8,1.7,1.2,2.8,1.2c1.2,0,2.1-0.4,2.8-1.2
		c0.7-0.8,1.1-2,1.1-3.4c0-0.9-0.2-1.8-0.5-2.5c-0.3-0.7-0.8-1.2-1.4-1.6c-0.6-0.4-1.3-0.6-2.1-0.6c-1.1,0-2,0.4-2.8,1.1
		C384,91.2,383.6,92.5,383.6,94.2 M382.1,94.2c0-1.9,0.5-3.4,1.5-4.5c1-1.1,2.4-1.6,4-1.6c1.1,0,2,0.3,2.9,0.8s1.5,1.2,2,2.1
		s0.7,1.9,0.7,3.1c0,1.2-0.2,2.2-0.7,3.1c-0.5,0.9-1.1,1.6-2,2.1c-0.9,0.5-1.8,0.7-2.8,0.7c-1.1,0-2.1-0.3-2.9-0.8
		c-0.9-0.5-1.5-1.2-1.9-2.2C382.3,96.1,382.1,95.2,382.1,94.2 M395.3,99.8V88.2h2.3l2.7,8.2c0.3,0.8,0.4,1.3,0.6,1.7
		c0.1-0.4,0.3-1,0.6-1.9l2.8-8h2.1v11.6h-1.5v-9.7l-3.4,9.7h-1.4l-3.3-9.8v9.8H395.3z M410.6,93.7h3c1,0,1.7-0.2,2.1-0.6
		c0.4-0.4,0.6-0.9,0.6-1.6c0-0.5-0.1-0.9-0.4-1.2s-0.6-0.6-1-0.7c-0.3-0.1-0.7-0.1-1.4-0.1h-3V93.7z M409,99.8V88.2h4.4
		c0.8,0,1.4,0,1.8,0.1c0.6,0.1,1,0.3,1.4,0.5c0.4,0.3,0.7,0.6,0.9,1.1c0.2,0.5,0.4,1,0.4,1.6c0,1-0.3,1.8-0.9,2.5
		c-0.6,0.7-1.8,1-3.4,1h-3v4.7H409z M420.9,95.1h3.9l-1.2-3.2c-0.4-1-0.6-1.8-0.8-2.4c-0.1,0.7-0.4,1.5-0.6,2.2L420.9,95.1z
		 M417.6,99.8l4.4-11.6h1.7l4.7,11.6h-1.7l-1.4-3.5h-4.8l-1.3,3.5H417.6z">
  </path>
  <polygon points="429.9,99.8 429.9,88.2 431.4,88.2 437.5,97.3 437.5,88.2 439,88.2 439,99.8 437.4,99.8 431.3,90.7 431.3,99.8 	">
  </polygon>
  <path d="M445,99.8v-4.9l-4.5-6.7h1.9l2.3,3.5c0.4,0.7,0.8,1.3,1.2,2c0.3-0.6,0.8-1.3,1.3-2l2.2-3.4h1.8l-4.6,6.7v4.9H445z
		 M457.9,19.2h0.3c0.2,0,0.4-0.1,0.5-0.2c0.1-0.1,0.2-0.3,0.2-0.5c0-0.2-0.1-0.4-0.2-0.5c-0.1-0.1-0.3-0.1-0.5-0.1h-0.3V19.2z
		 M459.9,18.6c0,0.5-0.2,0.9-0.7,1.1l1.1,1.9h-1l-0.9-1.6h-0.4v1.6h-0.9v-4.2h1.2c0.5,0,0.9,0.1,1.2,0.3
		C459.7,17.8,459.9,18.1,459.9,18.6z M455.5,19.4c0,0.5,0.1,1,0.4,1.5c0.3,0.5,0.6,0.8,1.1,1.1c0.5,0.3,0.9,0.4,1.5,0.4
		c0.5,0,1-0.1,1.5-0.4c0.5-0.3,0.8-0.6,1.1-1.1c0.3-0.5,0.4-0.9,0.4-1.5c0-0.5-0.1-1-0.4-1.5c-0.3-0.5-0.6-0.8-1.1-1.1
		c-0.5-0.3-1-0.4-1.5-0.4c-0.5,0-1,0.1-1.5,0.4c-0.5,0.3-0.8,0.6-1.1,1.1C455.6,18.4,455.5,18.9,455.5,19.4z M454.9,19.4
		c0-0.6,0.2-1.2,0.5-1.8c0.3-0.5,0.7-1,1.3-1.3c0.5-0.3,1.1-0.5,1.8-0.5c0.6,0,1.2,0.2,1.8,0.5c0.5,0.3,1,0.7,1.3,1.3
		c0.3,0.5,0.5,1.1,0.5,1.8c0,0.6-0.2,1.2-0.5,1.7c-0.3,0.5-0.7,1-1.3,1.3c-0.5,0.3-1.1,0.5-1.8,0.5c-0.6,0-1.2-0.2-1.8-0.5
		c-0.5-0.3-1-0.8-1.3-1.3C455.1,20.6,454.9,20,454.9,19.4z">
  </path>
 </g>
</svg>